<svg width="500" height="500" viewBox="0 0 500 500" xmlns="http://www.w3.org/2000/svg">
  <defs>
    <linearGradient id="mainGradient" x1="0%" y1="0%" x2="100%" y2="100%">
      <stop offset="0%" style="stop-color:#008cff;stop-opacity:1" />
      <stop offset="40%" style="stop-color:#3a4eff;stop-opacity:1" />
      <stop offset="70%" style="stop-color:#c80088;stop-opacity:1" />
      <stop offset="100%" style="stop-color:#ff9900;stop-opacity:1" />
    </linearGradient>

    <rect id="px" x="-10" y="-10" width="20" height="20" rx="1" ry="1" />

    <mask id="pixelMask">
      <rect x="0" y="0" width="500" height="500" fill="black" />
      
      <g fill="white" transform="translate(250, 250) scale(2) translate(-250, -250)">
        
        <use href="#px" transform="rotate(0, 250, 250) translate(250, 140)" />
        <use href="#px" transform="rotate(12, 250, 250) translate(250, 135)" />
        <use href="#px" transform="rotate(24, 250, 250) translate(250, 142)" />
        <use href="#px" transform="rotate(36, 250, 250) translate(250, 138)" />
        <use href="#px" transform="rotate(48, 250, 250) translate(250, 145)" />
        <use href="#px" transform="rotate(60, 250, 250) translate(250, 135)" />
        <use href="#px" transform="rotate(72, 250, 250) translate(250, 140)" />
        <use href="#px" transform="rotate(84, 250, 250) translate(250, 136)" />
        <use href="#px" transform="rotate(96, 250, 250) translate(250, 144)" />
        <use href="#px" transform="rotate(108, 250, 250) translate(250, 138)" />
        <use href="#px" transform="rotate(120, 250, 250) translate(250, 140)" />
        <use href="#px" transform="rotate(132, 250, 250) translate(250, 135)" />
        <use href="#px" transform="rotate(144, 250, 250) translate(250, 142)" />
        <use href="#px" transform="rotate(156, 250, 250) translate(250, 138)" />
        <use href="#px" transform="rotate(168, 250, 250) translate(250, 145)" />
        <use href="#px" transform="rotate(180, 250, 250) translate(250, 135)" />
        <use href="#px" transform="rotate(192, 250, 250) translate(250, 140)" />
        <use href="#px" transform="rotate(204, 250, 250) translate(250, 136)" />
        <use href="#px" transform="rotate(216, 250, 250) translate(250, 144)" />
        <use href="#px" transform="rotate(228, 250, 250) translate(250, 138)" />
        <use href="#px" transform="rotate(240, 250, 250) translate(250, 140)" />
        <use href="#px" transform="rotate(252, 250, 250) translate(250, 135)" />
        <use href="#px" transform="rotate(264, 250, 250) translate(250, 142)" />
        <use href="#px" transform="rotate(276, 250, 250) translate(250, 138)" />
        <use href="#px" transform="rotate(288, 250, 250) translate(250, 145)" />
        <use href="#px" transform="rotate(300, 250, 250) translate(250, 135)" />
        <use href="#px" transform="rotate(312, 250, 250) translate(250, 140)" />
        <use href="#px" transform="rotate(324, 250, 250) translate(250, 136)" />
        <use href="#px" transform="rotate(336, 250, 250) translate(250, 144)" />
        <use href="#px" transform="rotate(348, 250, 250) translate(250, 138)" />

        <use href="#px" transform="rotate(5, 250, 250) translate(250, 165) scale(0.9)" />
        <use href="#px" transform="rotate(25, 250, 250) translate(250, 170) scale(0.8)" />
        <use href="#px" transform="rotate(45, 250, 250) translate(250, 160) scale(0.9)" />
        <use href="#px" transform="rotate(65, 250, 250) translate(250, 175) scale(1.0)" />
        <use href="#px" transform="rotate(85, 250, 250) translate(250, 165) scale(0.8)" />
        <use href="#px" transform="rotate(105, 250, 250) translate(250, 170) scale(0.9)" />
        <use href="#px" transform="rotate(125, 250, 250) translate(250, 160) scale(1.0)" />
        <use href="#px" transform="rotate(145, 250, 250) translate(250, 175) scale(0.8)" />
        <use href="#px" transform="rotate(165, 250, 250) translate(250, 165) scale(0.9)" />
        <use href="#px" transform="rotate(185, 250, 250) translate(250, 170) scale(1.0)" />
        <use href="#px" transform="rotate(205, 250, 250) translate(250, 160) scale(0.8)" />
        <use href="#px" transform="rotate(225, 250, 250) translate(250, 175) scale(0.9)" />
        <use href="#px" transform="rotate(245, 250, 250) translate(250, 165) scale(1.0)" />
        <use href="#px" transform="rotate(265, 250, 250) translate(250, 170) scale(0.8)" />
        <use href="#px" transform="rotate(285, 250, 250) translate(250, 160) scale(0.9)" />
        <use href="#px" transform="rotate(305, 250, 250) translate(250, 175) scale(1.0)" />
        <use href="#px" transform="rotate(325, 250, 250) translate(250, 165) scale(0.8)" />
        <use href="#px" transform="rotate(345, 250, 250) translate(250, 170) scale(0.9)" />

        <use href="#px" transform="rotate(15, 250, 250) translate(250, 195) scale(0.7)" />
        <use href="#px" transform="rotate(55, 250, 250) translate(250, 200) scale(0.6)" />
        <use href="#px" transform="rotate(95, 250, 250) translate(250, 190) scale(0.7)" />
        <use href="#px" transform="rotate(135, 250, 250) translate(250, 205) scale(0.6)" />
        <use href="#px" transform="rotate(175, 250, 250) translate(250, 195) scale(0.7)" />
        <use href="#px" transform="rotate(215, 250, 250) translate(250, 200) scale(0.6)" />
        <use href="#px" transform="rotate(255, 250, 250) translate(250, 190) scale(0.7)" />
        <use href="#px" transform="rotate(295, 250, 250) translate(250, 205) scale(0.6)" />
        <use href="#px" transform="rotate(335, 250, 250) translate(250, 195) scale(0.7)" />
        
        <use href="#px" transform="rotate(30, 250, 250) translate(250, 115) scale(0.6)" />
        <use href="#px" transform="rotate(150, 250, 250) translate(250, 110) scale(0.6)" />
        <use href="#px" transform="rotate(270, 250, 250) translate(250, 118) scale(0.6)" />
      </g>
    </mask>
  </defs>

  <rect x="0" y="0" width="500" height="500" fill="url(#mainGradient)" mask="url(#pixelMask)" />
  
</svg>