<?xml version="1.0" standalone="no"?><!DOCTYPE svg PUBLIC "-//W3C//DTD SVG 1.1//EN" "http://www.w3.org/Graphics/SVG/1.1/DTD/svg11.dtd"><svg t="1751106464125" class="icon" viewBox="0 0 1024 1024" version="1.1" xmlns="http://www.w3.org/2000/svg" p-id="6186" xmlns:xlink="http://www.w3.org/1999/xlink" width="200" height="200"><path d="M663.87968 2.32448H153.91744a101.982208 101.982208 0 0 0-72.12032 29.87008 101.991424 101.991424 0 0 0-29.88032 72.12032v815.94368a101.982208 101.982208 0 0 0 101.9904 101.9904h713.95328c27.05408 0 52.992-10.752 72.12032-29.87008a102.00064 102.00064 0 0 0 29.87008-72.12032V308.29568L663.87968 2.32448z m-5.09952 124.93824l186.13248 186.14272H714.87488c-14.87872 0-29.14304-5.90848-39.66976-16.4352a56.057856 56.057856 0 0 1-16.42496-39.65952v-130.048z m219.27936 792.9856c0 2.70336-1.0752 5.30432-2.99008 7.20896a10.192896 10.192896 0 0 1-7.20896 2.99008H153.91744c-2.70336 0-5.30432-1.0752-7.20896-2.99008a10.192896 10.192896 0 0 1-2.99008-7.20896V104.31488c0-2.70336 1.0752-5.30432 2.99008-7.20896a10.174464 10.174464 0 0 1 7.20896-2.99008H566.9888v163.18464c0 39.2192 15.58528 76.84096 43.3152 104.57088a147.923968 147.923968 0 0 0 104.58112 43.3152h163.18464v515.06176z m-163.18464-203.9808H306.90304c-25.35424 0-45.90592 20.55168-45.90592 45.89568 0 25.35424 20.55168 45.90592 45.90592 45.90592h407.97184c25.344 0 45.89568-20.55168 45.89568-45.90592 0-25.344-20.55168-45.89568-45.89568-45.89568zM306.90304 604.07808h254.976c25.35424 0 45.90592-20.55168 45.90592-45.89568 0-25.35424-20.55168-45.90592-45.90592-45.90592h-254.976c-25.35424 0-45.90592 20.55168-45.90592 45.90592 0.01024 25.344 20.55168 45.89568 45.90592 45.89568z m0-203.99104h152.9856c25.344 0 45.89568-20.55168 45.89568-45.89568s-20.55168-45.89568-45.89568-45.89568h-152.9856c-25.35424 0-45.90592 20.55168-45.90592 45.89568s20.55168 45.89568 45.90592 45.89568z m0 0" fill="#ffffff" p-id="6187"></path></svg>