<?xml version="1.0" standalone="no"?><!DOCTYPE svg PUBLIC "-//W3C//DTD SVG 1.1//EN" "http://www.w3.org/Graphics/SVG/1.1/DTD/svg11.dtd"><svg t="1751106321671" class="icon" viewBox="0 0 1024 1024" version="1.1" xmlns="http://www.w3.org/2000/svg" p-id="5107" xmlns:xlink="http://www.w3.org/1999/xlink" width="200" height="200"><path d="M948.09 466.78L543.59 76.92a46.2 46.2 0 0 0-63.63 0L75.45 466.78c-13.55 13.06-12 24.28-9.82 29.61S74.2 511 93 511h36.55v380.5c0 36.06 31.08 66.53 66.28 66.53h153.4a35.64 35.64 0 0 0 35.64-35.64V662.46a22.3 22.3 0 0 1 22.3-22.3h206.38a25.74 25.74 0 0 1 25.74 25.74v258a34.11 34.11 0 0 0 34.1 34.1h155.32c35.31 0 64.93-31.09 64.93-66.53V511h36.9c18.81 0 25.22-9.27 27.38-14.6s3.72-16.56-9.83-29.62z" p-id="5108" fill="#FFFFFF"></path></svg>